<svg width="80" height="80" viewBox="0 0 80 80" fill="none" xmlns="http://www.w3.org/2000/svg">
<g id="symbol">
<circle id="Ellipse 1817" cx="40" cy="40" r="40" fill="url(#paint0_linear_1445_690)"/>
<path id="Vector" d="M55.0088 58.601V16.1719H51.6551C50.6334 21.6819 45.8027 25.8544 39.9976 25.8544C34.1924 25.8544 29.3617 21.6819 28.34 16.1719H24.9863V58.601C24.9863 65.4506 30.5383 71.0033 37.3869 71.0033H42.6082C49.4569 71.0033 55.0088 65.4506 55.0088 58.601Z" fill="white"/>
<path id="Vector_2" d="M40.0152 79.9982C54.0659 79.9982 66.4246 72.7536 73.5596 61.796C66.4246 50.8384 54.0659 43.5938 40.0152 43.5938C25.9644 43.5938 13.6057 50.8384 6.4707 61.796C13.6057 72.7536 25.9644 79.9982 40.0152 79.9982Z" fill="url(#paint1_linear_1445_690)"/>
</g>
<defs>
<linearGradient id="paint0_linear_1445_690" x1="40" y1="0" x2="40" y2="80" gradientUnits="userSpaceOnUse">
<stop stop-color="#5D93FF"/>
<stop offset="1" stop-color="#0046D1"/>
</linearGradient>
<linearGradient id="paint1_linear_1445_690" x1="40.0153" y1="43.5937" x2="39.9988" y2="79.9982" gradientUnits="userSpaceOnUse">
<stop stop-color="#5D93FF"/>
<stop offset="1" stop-color="#0046D1"/>
</linearGradient>
</defs>
</svg>
